<?xml version="1.0" encoding="UTF-8"?>
<svg version="1.1" xmlns="http://www.w3.org/2000/svg" width="377" height="81">
<path d="M0 0 C1.79244141 0.01740234 1.79244141 0.01740234 3.62109375 0.03515625 C5.41740234 0.04869141 5.41740234 0.04869141 7.25 0.0625 C8.17683594 0.07410156 9.10367188 0.08570312 10.05859375 0.09765625 C10.38859375 1.41765625 10.71859375 2.73765625 11.05859375 4.09765625 C12.11046875 3.43765625 13.16234375 2.77765625 14.24609375 2.09765625 C20.53901267 -1.032037 27.82656987 -1.15256249 34.53125 0.828125 C40.41802435 3.52393755 43.53351199 7.31921381 45.80859375 13.34765625 C48.21532396 21.33482683 47.56880776 28.53500006 44.05859375 36.09765625 C40.34286015 42.06534961 35.69929975 44.398871 29.05859375 46.09765625 C22.90778486 46.8298954 17.97679328 45.90418846 12.05859375 44.09765625 C11.99800781 45.24105469 11.93742188 46.38445313 11.875 47.5625 C11.79060947 49.0533993 11.70596073 50.544284 11.62109375 52.03515625 C11.56211914 53.16727539 11.56211914 53.16727539 11.50195312 54.32226562 C11.171875 59.984375 11.171875 59.984375 10.05859375 61.09765625 C7.89378578 61.19658565 5.7256559 61.22736725 3.55859375 61.22265625 C2.37265625 61.22523437 1.18671875 61.2278125 -0.03515625 61.23046875 C-2.94140625 61.09765625 -2.94140625 61.09765625 -3.94140625 60.09765625 C-4.04045777 58.26192994 -4.06939832 56.4223805 -4.07080078 54.58398438 C-4.07395294 53.40606323 -4.0771051 52.22814209 -4.08035278 51.01452637 C-4.07832855 49.73227173 -4.07630432 48.45001709 -4.07421875 47.12890625 C-4.07517548 45.82312622 -4.0761322 44.51734619 -4.07711792 43.17199707 C-4.07859458 40.40452903 -4.07644136 37.63709321 -4.07177734 34.86962891 C-4.06608006 31.31502976 -4.06935923 27.76050611 -4.07534981 24.20590973 C-4.07982372 20.82606911 -4.07669511 17.44624902 -4.07421875 14.06640625 C-4.07624298 12.78415161 -4.07826721 11.50189697 -4.08035278 10.18078613 C-4.07720062 9.00286499 -4.07404846 7.82494385 -4.07080078 6.61132812 C-4.07000519 5.56843628 -4.06920959 4.52554443 -4.06838989 3.4510498 C-3.87877208 -0.06314562 -3.5767021 0.11874841 0 0 Z M13.05859375 14.09765625 C10.21893263 16.93731737 10.65326521 19.73534954 10.62109375 23.53515625 C10.58822266 24.21642578 10.55535156 24.89769531 10.52148438 25.59960938 C10.4413025 27.85684317 10.4413025 27.85684317 11.05859375 31.09765625 C14.09898506 33.74608074 16.63624515 34.50024848 20.62109375 34.41015625 C21.36488281 34.40628906 22.10867187 34.40242188 22.875 34.3984375 C25.33959519 34.05894943 26.94924333 33.4081463 29.05859375 32.09765625 C32.12256692 27.76583212 32.48876465 24.30788828 31.69921875 19.21875 C30.66674585 15.80025742 28.89936919 14.16367475 26.05859375 12.09765625 C21.44606826 10.10305063 17.33300759 11.95573143 13.05859375 14.09765625 Z " fill="#FDFDFD" transform="translate(196.94140625,16.90234375)"/>
<path d="M0 0 C0.69704041 0.00045822 1.39408081 0.00091644 2.11224365 0.00138855 C3.57452107 0.00439183 5.03679584 0.0122199 6.49902344 0.0246582 C8.74165091 0.04302835 10.98386727 0.04516682 13.2265625 0.04492188 C24.18888026 0.08272138 24.18888026 0.08272138 26.484375 1.23046875 C27.75805921 8.40941612 27.75805921 8.40941612 26.484375 12.23046875 C21.90108362 12.39830256 17.31773553 12.56453495 12.734375 12.73046875 C11.43242187 12.77816406 10.13046875 12.82585938 8.7890625 12.875 C7.53867187 12.92011719 6.28828125 12.96523438 5 13.01171875 C3.84790039 13.05361328 2.69580078 13.09550781 1.50878906 13.13867188 C-0.83180434 13.20971346 -3.17395372 13.23046875 -5.515625 13.23046875 C-5.515625 14.22046875 -5.515625 15.21046875 -5.515625 16.23046875 C-4.89107422 16.20952148 -4.26652344 16.18857422 -3.62304688 16.16699219 C-0.7540744 16.08311031 2.11463908 16.03158364 4.984375 15.98046875 C5.96664063 15.94695313 6.94890625 15.9134375 7.9609375 15.87890625 C14.37686197 15.79336059 19.1437053 16.52731902 24.484375 20.23046875 C27.99304637 23.64917419 29.38982268 26.31374814 29.484375 31.23046875 C28.55435036 35.95466469 27.40409478 39.33318116 23.921875 42.73046875 C19.89276129 45.20992334 16.85961483 45.45001565 12.2109375 45.58203125 C11.13070816 45.61676041 11.13070816 45.61676041 10.02865601 45.65219116 C8.50387596 45.69983345 6.97901906 45.74506721 5.45410156 45.78808594 C3.12534464 45.85500981 0.79712958 45.93285746 -1.53125 46.01171875 C-3.01300086 46.05665307 -4.49477137 46.1009449 -5.9765625 46.14453125 C-7.0189357 46.18037827 -7.0189357 46.18037827 -8.08236694 46.21694946 C-11.52416177 46.30573338 -14.13242769 46.07626808 -17.515625 45.23046875 C-17.515625 41.60046875 -17.515625 37.97046875 -17.515625 34.23046875 C4.01628989 33.03897939 4.01628989 33.03897939 14.484375 33.23046875 C14.154375 32.24046875 13.824375 31.25046875 13.484375 30.23046875 C12.4488147 30.23216064 12.4488147 30.23216064 11.39233398 30.23388672 C8.23454562 30.22170777 5.07913125 30.16397031 1.921875 30.10546875 C0.83583984 30.10804687 -0.25019531 30.110625 -1.36914062 30.11328125 C-7.81160521 29.95662558 -11.68669237 29.34409129 -16.32397461 24.70751953 C-19.35020222 20.9565101 -18.90393977 16.92936965 -18.859375 12.2890625 C-18.44145862 8.57055656 -17.428774 6.46931156 -15.1953125 3.53515625 C-10.70521779 0.04750129 -5.46925529 -0.01733358 0 0 Z " fill="#FCFCFD" transform="translate(18.515625,16.76953125)"/>
<path d="M0 0 C3.99106025 3.20634861 5.48199387 6.60685514 6.84765625 11.484375 C7.07470703 14.91943359 7.07470703 14.91943359 7.04296875 18.6328125 C7.04013885 19.29020416 7.03730896 19.94759583 7.03439331 20.62490845 C7.02329072 22.70325733 6.99820611 24.78115866 6.97265625 26.859375 C6.96261356 28.27733748 6.95348998 29.69530679 6.9453125 31.11328125 C6.92509415 34.57061929 6.88592975 38.02700235 6.84765625 41.484375 C2.22765625 41.484375 -2.39234375 41.484375 -7.15234375 41.484375 C-7.64734375 39.504375 -7.64734375 39.504375 -8.15234375 37.484375 C-9.76109375 38.4434375 -9.76109375 38.4434375 -11.40234375 39.421875 C-17.01900542 42.77026946 -22.70977697 43.19914253 -29.15234375 42.484375 C-33.49991832 41.0083917 -37.1309437 38.98144736 -40.15234375 35.484375 C-41.73083179 30.74891089 -41.84602862 26.39200839 -40.15234375 21.734375 C-35.89021473 16.93947985 -30.38761093 15.25331515 -24.15234375 14.484375 C-21.69480234 14.41859498 -19.23565597 14.39868338 -16.77734375 14.421875 C-14.90949219 14.43541016 -14.90949219 14.43541016 -13.00390625 14.44921875 C-11.59238281 14.46662109 -11.59238281 14.46662109 -10.15234375 14.484375 C-10.64734375 12.009375 -10.64734375 12.009375 -11.15234375 9.484375 C-20.06610824 7.57428261 -27.59109448 10.03680312 -36.15234375 12.484375 C-36.82642683 11.21745993 -37.49134872 9.94566751 -38.15234375 8.671875 C-38.70921875 7.61033203 -38.70921875 7.61033203 -39.27734375 6.52734375 C-40.15234375 4.484375 -40.15234375 4.484375 -40.15234375 1.484375 C-38.57034744 0.83527346 -36.98668651 0.19022806 -35.40234375 -0.453125 C-34.520625 -0.81277344 -33.63890625 -1.17242188 -32.73046875 -1.54296875 C-22.62912393 -5.35393066 -9.44531573 -5.39732328 0 0 Z M-26.15234375 25.484375 C-26.15234375 27.134375 -26.15234375 28.784375 -26.15234375 30.484375 C-22.65393075 32.2335815 -18.87821636 31.29751332 -15.15234375 30.484375 C-12.60673911 29.34579547 -10.49253368 28.02790453 -8.15234375 26.484375 C-8.15234375 25.164375 -8.15234375 23.844375 -8.15234375 22.484375 C-14.86934722 22.16451769 -19.90961307 23.0049926 -26.15234375 25.484375 Z " fill="#FCFDFD" transform="translate(312.15234375,20.515625)"/>
<path d="M0 0 C5.67394244 3.2845044 8.92608453 7.19078493 10.84765625 13.4453125 C12.17638897 20.23087961 11.94907607 27.51693065 8.25 33.5 C2.70583577 39.98120607 -3.43020446 42.95923298 -11.82421875 43.8125 C-20.20590954 44.12991314 -28.31549199 43.25534912 -34.91796875 37.6640625 C-40.49932088 31.65691649 -42.19538481 26.14802505 -42 18.02734375 C-41.4841459 12.81238121 -39.86631897 8.95459745 -36.6875 4.8125 C-25.83091054 -3.73417681 -12.81536269 -5.77482393 0 0 Z M-23.75 11.5 C-26.1191812 15.27588254 -27.00731342 18.2921156 -26.6875 22.6875 C-25.70868125 26.66802958 -24.96223811 28.06648628 -21.75 30.5 C-18.05009772 32.34995114 -13.78832859 31.96986842 -9.75 31.5 C-6.19319828 29.39495409 -5.05531064 28.41593192 -3.75 24.5 C-3.48403722 20.37757688 -3.35553914 17.5441611 -4.8125 13.6875 C-7.42844253 10.7340165 -10.04751261 9.75620108 -13.75 8.5 C-17.57602983 8.5 -20.58476959 9.39482317 -23.75 11.5 Z " fill="#FCFDFD" transform="translate(92.75,19.5)"/>
<path d="M0 0 C1.09570312 0.00902344 2.19140625 0.01804687 3.3203125 0.02734375 C4.16335938 0.03894531 5.00640625 0.05054687 5.875 0.0625 C6.205 1.3825 6.535 2.7025 6.875 4.0625 C7.90625 3.4025 8.9375 2.7425 10 2.0625 C16.46639716 -1.1649353 24.27372017 -1.17899203 31.19140625 0.6875 C35.06427875 2.56120074 37.24283207 5.49501176 39.06787109 9.30273438 C40.91848867 15.63043584 40.27226445 22.5259035 40.125 29.0625 C40.10490643 30.61586242 40.0866607 32.1692499 40.0703125 33.72265625 C40.02995947 37.50373561 39.9516461 41.28129235 39.875 45.0625 C34.925 45.0625 29.975 45.0625 24.875 45.0625 C24.82601562 43.00386719 24.77703125 40.94523437 24.7265625 38.82421875 C24.67093306 36.82851267 24.61523623 34.83280783 24.55761719 32.8371582 C24.5193565 31.45118093 24.48449844 30.06510535 24.453125 28.67895508 C24.40741301 26.6854836 24.34841075 24.69233086 24.2890625 22.69921875 C24.2576416 21.49998779 24.2262207 20.30075684 24.19384766 19.06518555 C24.09070506 15.88367294 24.09070506 15.88367294 21.875 13.0625 C17.82060762 12.58551266 14.8116236 12.92232788 11.13671875 14.5859375 C10.06035156 15.07320312 8.98398437 15.56046875 7.875 16.0625 C7.84994385 16.86993652 7.8248877 17.67737305 7.79907227 18.50927734 C7.68334513 22.15218917 7.56051365 25.79482726 7.4375 29.4375 C7.39818359 30.70851563 7.35886719 31.97953125 7.31835938 33.2890625 C7.27646484 34.50078125 7.23457031 35.7125 7.19140625 36.9609375 C7.15474854 38.08161621 7.11809082 39.20229492 7.08032227 40.35693359 C6.875 43.0625 6.875 43.0625 5.875 45.0625 C1.255 45.0625 -3.365 45.0625 -8.125 45.0625 C-8.82195628 41.57771861 -9.24575522 39.29270593 -9.14672852 35.91479492 C-9.12663223 35.13436325 -9.10653595 34.35393158 -9.08583069 33.54985046 C-9.05879562 32.7225795 -9.03176056 31.89530853 -9.00390625 31.04296875 C-8.98029526 30.18439774 -8.95668427 29.32582672 -8.93235779 28.4412384 C-8.85604912 25.71064354 -8.77188452 22.98035604 -8.6875 20.25 C-8.63424644 18.39389503 -8.58150629 16.53777526 -8.52929688 14.68164062 C-8.40047858 10.14173404 -8.26461628 5.60208683 -8.125 1.0625 C-5.36047967 -0.31976016 -3.0788637 -0.03275387 0 0 Z " fill="#FDFDFE" transform="translate(335.125,16.9375)"/>
<path d="M0 0 C0 3.3 0 6.6 0 10 C-1.39025391 10.07347656 -1.39025391 10.07347656 -2.80859375 10.1484375 C-4.00613281 10.22320312 -5.20367187 10.29796875 -6.4375 10.375 C-8.22994141 10.47941406 -8.22994141 10.47941406 -10.05859375 10.5859375 C-11.02925781 10.72257813 -11.99992187 10.85921875 -13 11 C-13.33 11.66 -13.66 12.32 -14 13 C-12.71802734 13.09087891 -12.71802734 13.09087891 -11.41015625 13.18359375 C-10.30542969 13.26738281 -9.20070312 13.35117187 -8.0625 13.4375 C-6.40927734 13.55931641 -6.40927734 13.55931641 -4.72265625 13.68359375 C-2 14 -2 14 -1 15 C-0.92773498 16.85287502 -0.9161878 18.70833878 -0.9375 20.5625 C-0.94652344 21.57441406 -0.95554688 22.58632813 -0.96484375 23.62890625 C-0.97644531 24.41136719 -0.98804688 25.19382812 -1 26 C-5 27 -5 27 -15 27 C-15 37.56 -15 48.12 -15 59 C-19.95 59 -24.9 59 -30 59 C-30 48.11 -30 37.22 -30 26 C-32.31 26 -34.62 26 -37 26 C-37.02687279 24.18757948 -37.04633715 22.37504767 -37.0625 20.5625 C-37.07410156 19.55316406 -37.08570312 18.54382813 -37.09765625 17.50390625 C-37 15 -37 15 -36 14 C-34.33382885 13.95936168 -32.66611905 13.957279 -31 14 C-30.85304688 13.40832031 -30.70609375 12.81664062 -30.5546875 12.20703125 C-28.86220984 6.2444519 -27.2714576 3.34534809 -22 0 C-14.30444735 -2.99271492 -7.67579171 -2.55859724 0 0 Z " fill="#FDFDFD" transform="translate(144,3)"/>
<path d="M0 0 C2.31243792 -0.02685412 4.6249627 -0.04632841 6.9375 -0.0625 C8.22527344 -0.07410156 9.51304687 -0.08570313 10.83984375 -0.09765625 C14 0 14 0 15 1 C15.07205511 2.68608966 15.08386068 4.37500659 15.0625 6.0625 C15.05347656 6.98160156 15.04445312 7.90070312 15.03515625 8.84765625 C15.02355469 9.55792969 15.01195312 10.26820312 15 11 C16.07121094 10.98839844 17.14242187 10.97679687 18.24609375 10.96484375 C19.64322743 10.95546701 21.04036299 10.94636669 22.4375 10.9375 C23.14455078 10.92912109 23.85160156 10.92074219 24.58007812 10.91210938 C26.38693559 10.90346412 28.19387603 10.94779989 30 11 C31 12 31 12 31.09765625 14.50390625 C31.08605469 15.51324219 31.07445312 16.52257812 31.0625 17.5625 C31.05347656 18.57441406 31.04445312 19.58632813 31.03515625 20.62890625 C31.02355469 21.41136719 31.01195312 22.19382812 31 23 C27.99686252 24.50156874 25.20932478 24.09281204 21.875 24.0625 C20.59367187 24.05347656 19.31234375 24.04445313 17.9921875 24.03515625 C17.00476563 24.02355469 16.01734375 24.01195313 15 24 C15.08670137 26.95980532 15.19353023 29.91646869 15.3125 32.875 C15.33505859 33.71675781 15.35761719 34.55851562 15.38085938 35.42578125 C15.4340332 36.63427734 15.4340332 36.63427734 15.48828125 37.8671875 C15.51446533 38.61081543 15.54064941 39.35444336 15.56762695 40.12060547 C15.86729591 42.40733826 15.86729591 42.40733826 19 44 C21.71236028 44.20444876 21.71236028 44.20444876 24.625 44.0625 C26.41597213 44.00844179 28.20832865 43.97957378 30 44 C31 45 31 45 31.25 48.875 C31.19529821 52.69728778 31.19529821 52.69728778 29.75 54.9375 C24.80068854 57.9424391 18.92176183 57.55715278 13.3984375 56.50390625 C9.38036819 55.45494125 6.61642456 54.5547821 3.5 51.75 C0.12698055 45.56613102 -0.35782542 39.47007613 -0.625 32.5625 C-0.66367188 31.73556641 -0.70234375 30.90863281 -0.7421875 30.05664062 C-0.83553092 28.03808927 -0.91880961 26.01907669 -1 24 C-2.98 23.67 -4.96 23.34 -7 23 C-7 19.04 -7 15.08 -7 11 C-5.02 11 -3.04 11 -1 11 C-0.67 7.37 -0.34 3.74 0 0 Z " fill="#FCFDFD" transform="translate(155,6)"/>
<path d="M0 0 C4.95 0 9.9 0 15 0 C15.02255523 7.67536977 15.04091753 15.35072729 15.05181217 23.02612209 C15.05703995 26.58977422 15.06413569 30.15340257 15.07543945 33.71704102 C15.08834176 37.81006097 15.09322906 41.9030558 15.09765625 45.99609375 C15.10281754 47.28148544 15.10797882 48.56687714 15.11329651 49.89122009 C15.11337204 51.07236893 15.11344757 52.25351776 15.11352539 53.47045898 C15.115746 54.51636703 15.11796661 55.56227509 15.12025452 56.63987732 C15 59 15 59 14 60 C9.38 60 4.76 60 0 60 C0 40.2 0 20.4 0 0 Z " fill="#FDFDFE" transform="translate(250,2)"/>
<path d="M0 0 C1.19496094 0.02320313 1.19496094 0.02320313 2.4140625 0.046875 C4.375 0.25 4.375 0.25 5.375 1.25 C5.47351171 3.08115883 5.50472629 4.91619933 5.5 6.75 C5.50257812 7.7503125 5.50515625 8.750625 5.5078125 9.78125 C5.375 12.25 5.375 12.25 4.375 13.25 C2.35905418 13.48427778 0.336526 13.66336124 -1.6875 13.8125 C-3.34458984 13.93818359 -3.34458984 13.93818359 -5.03515625 14.06640625 C-5.88980469 14.12699219 -6.74445312 14.18757813 -7.625 14.25 C-7.70614106 12.47992286 -7.76425505 10.70877902 -7.8125 8.9375 C-7.84730469 7.95136719 -7.88210937 6.96523437 -7.91796875 5.94921875 C-7.625 3.25 -7.625 3.25 -6.40234375 1.41015625 C-4.12439587 -0.07676797 -2.70111795 -0.0879843 0 0 Z " fill="#FBFCFC" transform="translate(8.625,63.75)"/>
<path d="M0 0 C2.31 0 4.62 0 7 0 C7.66 1.65 8.32 3.3 9 5 C8.01 5.33 7.02 5.66 6 6 C5.67 4.68 5.34 3.36 5 2 C3.35 1.67 1.7 1.34 0 1 C0 0.67 0 0.34 0 0 Z " fill="#EBEDF5" transform="translate(334,18)"/>
</svg>
